<?xml version="1.0" encoding="iso-8859-1"?>
<!-- Generator: Adobe Illustrator 20.1.0, SVG Export Plug-In . SVG Version: 6.00 Build 0)  -->
<svg version="1.1" id="&#x421;&#x43B;&#x43E;&#x439;_1"
	 xmlns="http://www.w3.org/2000/svg" xmlns:xlink="http://www.w3.org/1999/xlink" x="0px" y="0px" viewBox="0 0 584 271"
	 style="enable-background:new 0 0 584 271;" xml:space="preserve">
<g>
	<defs>
		<rect id="SVGID_1_" x="-9.1" y="-15.9" width="595.2" height="841.8"/>
	</defs>
	<clipPath id="SVGID_2_">
		<use xlink:href="#SVGID_1_"  style="overflow:visible;"/>
	</clipPath>
	<path style="clip-path:url(#SVGID_2_);fill-rule:evenodd;clip-rule:evenodd;fill:#B1C900;" d="M80.3,76.1c0.1-1.2,0.1-2,0.1-2
		C81.3,67,83.3,61,83.3,61c-0.4,0.3-0.7,0.8-1.1,1.3l-1.7,3.1l-1.6,3.5l-0.8,2.4l-0.6,1.8l-0.3,1.5L77,75.4l-0.2,0.5V76h2.3
		C79.5,76,79.9,76,80.3,76.1z M82.5,97.2L82.5,97.2z M82.5,97.2c-0.2-0.7-0.3-1.2-0.3-1.2c-0.2-0.5-0.3-1.2-0.4-1.8
		c-0.8,0.2-1.8,0.3-2.7,0.3h-2.7v0.1l0.1,0.3l0.2,0.7l0.1,0.7L77,97l0.1,0.5c0.9-0.2,1.8-0.3,2.9-0.3H82.5z M102,133.9L102,133.9z
		 M102,133.9c-1-1.3-2.5-3.4-4.1-5.7c-0.1,0.3-0.2,0.5-0.4,0.8C100,131.7,102,133.9,102,133.9z"/>
	<path style="clip-path:url(#SVGID_2_);fill-rule:evenodd;clip-rule:evenodd;fill:#5BC3CD;" d="M99.3,46.9c0,0,4.6-2.7,13-4.3
		c0,0-2.3,3.3-3.5,5.9c0,0-3.2,7.3-4.2,12.7c0,0-1.6,9-1.8,14.2c0,0-0.1,10.4,0,13.5c0,0,0.7,9.1,1.3,12.2c0.1,0.1,0.1,0.1,0.1,0.2
		c0.6,2.9,3.1,13.5,3.5,14.9c0,0,2.8,9.8,3.4,11.7c0,0,4.9,14.3,5.6,16c0,0,2,5.4,2.3,6.5c-1.4-0.3-2.2-0.6-2.2-0.6l0.1,0.3
		l-0.4-0.1l-2.5-2.8l-2.2-4.2l-2.2-3.7l-2.2-3.8l-2.1-3.7l-2.3-3.9l-2.1-3.8c0,0-2-4-2.1-4.3c-0.1,0-0.2-0.4-0.5-1
		c0.1-0.4,0.1-0.9,0.1-1.5c0-1.2-0.1-2.5-0.3-3.7c-0.2-1.2-0.4-2.4-0.8-3.5c-0.4-1.1-0.8-2.1-1.3-3.1c-0.6-0.9-1.1-1.8-1.8-2.6
		c-0.4-0.5-0.7-0.9-1.2-1.3l-0.5-2l-0.8-4l-0.8-3.9L90.3,89l-0.4-4.1l-0.2-4.2v-3.3l0.2-3.9l0.4-3.8l0.5-3.1l0.7-3.3l0.9-3l1.1-3.2
		l1.2-2.7l1.3-2.5l1.3-2.2L99.3,46.9z"/>
	<path style="clip-path:url(#SVGID_2_);fill-rule:evenodd;clip-rule:evenodd;fill:#008BD0;" d="M503.9,206.7c-5.5,0-8.2-2.8-8.2-8.3
		v-42.8c0-5.5,2.7-8.2,8.2-8.2h27.9c2.5,0,4.5,0.8,6,2.4c1.4,1.6,2.1,3.6,2.1,5.8c0,2.2-0.7,4.1-2.1,5.8c-1.5,1.6-3.5,2.4-6,2.4
		h-19.7v5.7h16.4c2.3,0,4.2,0.7,5.5,2.2s2,3.2,2,5.3c0,2-0.7,3.8-2,5.3c-1.3,1.4-3.2,2.2-5.5,2.2h-16.4v5.7h19.7
		c2.5,0,4.5,0.8,6,2.4c1.4,1.6,2.1,3.5,2.1,5.8c0,2.3-0.7,4.2-2.1,5.9c-1.5,1.6-3.5,2.4-6,2.4H503.9z M453.1,206.7L453.1,206.7z
		 M453.1,206.7c-5.4,0-8.1-2.8-8.1-8.3v-42.8c0-5.5,2.7-8.2,8.1-8.2H481c2.6,0,4.6,0.8,6,2.4c1.4,1.6,2.1,3.6,2.1,5.8
		c0,2.2-0.7,4.1-2.1,5.8c-1.4,1.6-3.4,2.4-6,2.4h-19.7v5.7h16.4c2.3,0,4.2,0.7,5.5,2.2c1.3,1.5,2,3.2,2,5.3c0,2-0.7,3.8-2,5.3
		c-1.3,1.4-3.2,2.2-5.5,2.2h-16.4v5.7H481c2.6,0,4.6,0.8,6,2.4c1.4,1.6,2.1,3.5,2.1,5.8c0,2.3-0.7,4.2-2.1,5.9
		c-1.4,1.6-3.4,2.4-6,2.4H453.1z M373.6,206.7L373.6,206.7z M373.6,206.7c-5.4,0-8.1-2.8-8.1-8.3v-43.3c0-2.6,0.8-4.6,2.4-6
		c1.6-1.4,3.5-2.1,5.7-2.1c2.2,0,4.1,0.7,5.8,2.1c1.6,1.4,2.4,3.4,2.4,6v35.1h9.5v-35.1c0-2.6,0.8-4.6,2.5-6
		c1.6-1.4,3.5-2.1,5.7-2.1c1.1,0,2.1,0.2,3.1,0.6c1,0.4,1.9,0.9,2.6,1.6c0.7,0.7,1.3,1.5,1.8,2.6c0.4,1,0.6,2.1,0.6,3.3v35.1h9.5
		v-35.1c0-2.6,0.8-4.6,2.5-6c1.6-1.4,3.5-2.1,5.7-2.1c2.2,0,4.1,0.7,5.8,2.1c1.6,1.4,2.4,3.4,2.4,6v35.1c5.5,0,8.3,2.8,8.3,8.3v11.7
		c0,2.7-0.8,4.7-2.5,6.1c-1.6,1.4-3.5,2-5.7,2c-2.2,0-4.2-0.6-5.8-2c-1.6-1.4-2.4-3.4-2.4-6.1v-3.5H373.6z M343.5,151.2L343.5,151.2
		z M343.5,151.2c1.6-2.8,3.9-4.2,6.8-4.2c1.1,0,2.1,0.2,3.2,0.7s2,1,2.8,1.8c0.8,0.8,1.4,1.6,1.9,2.7c0.5,0.9,0.8,2,0.8,3
		c0,0.8-0.1,1.5-0.4,2.2c-0.2,0.7-0.5,1.4-1,2.1l-26.9,43.3c-0.8,1.5-1.7,2.5-2.9,3.2c-1.1,0.7-2.3,1-3.6,1c-1,0-2-0.2-3.1-0.6
		c-1-0.4-2-1-2.9-1.8c-0.9-0.7-1.6-1.6-2.1-2.6c-0.6-1-0.9-2.1-0.9-3.2c0-1.3,0.5-2.7,1.5-4.2l11.7-17.5l-11.7-17.6
		c-0.5-0.6-0.9-1.3-1.1-1.9c-0.3-0.6-0.4-1.3-0.4-2c0-1.2,0.2-2.2,0.7-3.3c0.5-0.9,1.2-1.9,1.9-2.6c0.9-0.8,1.8-1.5,2.9-1.9
		c1-0.5,2.1-0.8,3.3-0.8c1.3,0,2.5,0.4,3.7,1.1c1.2,0.7,2.2,1.8,3,3.1l6.3,11.4L343.5,151.2z M287.8,163.7L287.8,163.7z
		 M287.8,163.7h-6.2c-0.2,5.5-0.9,10.3-2.1,14.6c-1.1,4.2-2.6,8.2-4.4,11.9h12.7V163.7z M265.9,206.7L265.9,206.7z M265.9,206.7v3.5
		c0,2.7-0.7,4.7-2.4,6.1c-1.6,1.4-3.6,2-5.8,2c-2.2,0-4.1-0.6-5.7-2c-1.6-1.4-2.4-3.4-2.4-6.1v-11.7c0-4.6,1.9-7.3,5.8-8.1
		c1.1-1.4,2.2-3.3,3.4-5.7c1.2-2.4,2.2-5.1,3.2-8.2c0.9-3.1,1.7-6.4,2.4-10c0.6-3.6,1-7.2,1-10.9c0-5.5,2.7-8.3,8.1-8.3h22.6
		c5.4,0,8.1,2.8,8.1,8.3v34.6c5.4,0,8.1,2.8,8.1,8.3v11.7c0,2.7-0.7,4.7-2.4,6.1c-1.6,1.4-3.5,2-5.7,2c-2.2,0-4.1-0.6-5.8-2
		c-1.6-1.4-2.4-3.4-2.4-6.1v-3.5H265.9z M230.3,151.2L230.3,151.2z M230.3,151.2c1.7-2.8,4-4.2,6.9-4.2c1.1,0,2.1,0.2,3.2,0.7
		s2,1,2.8,1.8c0.7,0.8,1.4,1.6,1.9,2.7c0.5,0.9,0.8,2,0.8,3c0,0.8-0.1,1.5-0.4,2.2c-0.2,0.7-0.5,1.4-1,2.1l-26.9,43.3
		c-0.8,1.5-1.7,2.5-2.9,3.2c-1.1,0.7-2.3,1-3.6,1c-1,0-2-0.2-3.1-0.6c-1-0.4-2-1-2.9-1.8c-0.9-0.7-1.6-1.6-2.2-2.6
		c-0.5-1-0.8-2.1-0.8-3.2c0-1.3,0.5-2.7,1.4-4.2l11.8-17.5l-11.8-17.6c-0.4-0.6-0.8-1.3-1.1-1.9c-0.2-0.6-0.3-1.3-0.3-2
		c0-1.2,0.2-2.2,0.7-3.3c0.5-0.9,1.2-1.9,2-2.6c0.8-0.8,1.7-1.5,2.8-1.9c1-0.5,2.1-0.8,3.3-0.8c1.3,0,2.5,0.4,3.7,1.1
		c1.2,0.7,2.2,1.8,3,3.1l6.4,11.4L230.3,151.2z M160.7,206.7L160.7,206.7z M160.7,206.7c-5.3,0-7.9-2.8-7.9-8.3v-42.8
		c0-5.5,2.7-8.3,8-8.3h17c2.5,0,4.5,0.8,5.8,2.4c1.3,1.7,2,3.6,2,5.9c0,2.2-0.7,4.1-2,5.7c-1.3,1.7-3.3,2.4-5.8,2.4h-8.7V191h8.9
		c1.8,0,3.1-0.3,4.1-1.1c1-0.8,1.4-2,1.4-3.7c0-1.5-0.4-2.6-1.1-3.3c-0.8-0.8-1.9-1.2-3.3-1.2h-1.4c-1.8,0-3.3-0.5-4.4-1.5
		c-1.2-0.9-1.8-2.5-1.8-4.6c0-2.2,0.5-3.9,1.6-5.2c1.1-1.3,2.9-1.9,5.7-1.9h2.8c2.6,0,4.9,0.5,6.9,1.4c2,1,3.7,2.4,5.2,4.1
		c1.4,1.7,2.5,3.7,3.2,6c0.8,2.4,1.2,4.9,1.2,7.6c0,2.9-0.4,5.6-1.3,7.9c-0.8,2.3-2,4.3-3.7,6c-1.7,1.6-3.9,3-6.5,3.8
		c-2.6,0.9-5.7,1.4-9.2,1.4H160.7z M418.6,136.4L418.6,136.4z M418.6,136.4c-5.5,0-8.2-2.7-8.2-8.2V85.4c0-5.5,2.7-8.3,8.2-8.3h27.9
		c2.6,0,4.6,0.8,6,2.5c1.4,1.6,2.2,3.5,2.2,5.8c0,2.2-0.8,4.1-2.2,5.7c-1.4,1.7-3.4,2.5-6,2.5h-19.7v5.6h16.4c2.3,0,4.2,0.8,5.5,2.2
		c1.3,1.5,2,3.3,2,5.3c0,2.1-0.7,3.8-2,5.3c-1.3,1.5-3.2,2.3-5.5,2.3h-16.4v5.7h19.7c2.6,0,4.6,0.8,6,2.4c1.4,1.6,2.2,3.5,2.2,5.7
		c0,2.3-0.8,4.3-2.2,5.9s-3.4,2.4-6,2.4H418.6z M360.7,106.9L360.7,106.9z M360.7,106.9c0,2,0.3,3.7,1.1,5.4
		c0.7,1.6,1.7,3.1,2.9,4.3c1.3,1.3,2.7,2.2,4.4,2.9c1.6,0.7,3.4,1.1,5.3,1.1s3.7-0.4,5.4-1.1c1.6-0.7,3.1-1.6,4.4-2.9
		c1.2-1.2,2.2-2.7,3-4.3c0.7-1.7,1.1-3.4,1.1-5.4c0-1.9-0.4-3.6-1.1-5.3c-0.8-1.7-1.8-3.2-3-4.4c-1.3-1.3-2.8-2.2-4.4-3
		c-1.7-0.7-3.5-1.1-5.4-1.1s-3.7,0.4-5.3,1.1c-1.7,0.8-3.1,1.7-4.4,3c-1.2,1.2-2.2,2.7-2.9,4.4C361,103.3,360.7,105,360.7,106.9z
		 M344.1,106.7L344.1,106.7z M344.1,106.7c0-4.2,0.7-8.1,2.3-11.8c1.6-3.6,3.7-6.8,6.5-9.6s6-4.9,9.6-6.5c3.7-1.6,7.6-2.4,11.8-2.4
		c4.2,0,8.1,0.8,11.8,2.4c3.7,1.6,6.9,3.7,9.6,6.5c2.8,2.8,4.9,6,6.5,9.6c1.6,3.7,2.4,7.6,2.4,11.8c0,4.3-0.8,8.2-2.4,11.9
		c-1.6,3.6-3.7,6.8-6.5,9.5c-2.7,2.8-5.9,5-9.6,6.5c-3.7,1.6-7.6,2.4-11.8,2.4c-4.2,0-8.1-0.8-11.8-2.4c-3.6-1.5-6.8-3.7-9.6-6.5
		c-2.8-2.7-4.9-5.9-6.5-9.5C344.8,114.9,344.1,111,344.1,106.7z M304.8,76.8L304.8,76.8z M304.8,76.8c1.1,0,2.1,0.2,3.1,0.5
		c1,0.4,1.8,1,2.6,1.6c0.7,0.7,1.3,1.6,1.8,2.6c0.4,1,0.6,2.1,0.6,3.4V120h9.5V84.9c0-2.6,0.8-4.6,2.4-6c1.7-1.4,3.6-2.1,5.8-2.1
		c2.2,0,4.1,0.7,5.7,2.1c1.6,1.4,2.4,3.4,2.4,6v43.2c0,5.6-2.7,8.3-8.1,8.3h-51.7c-5.4,0-8.1-2.7-8.1-8.3V84.9c0-2.6,0.8-4.6,2.4-6
		c1.6-1.4,3.5-2.1,5.7-2.1s4.1,0.7,5.8,2.1c1.6,1.4,2.4,3.4,2.4,6V120h9.5V84.9c0-2.6,0.8-4.6,2.4-6
		C300.7,77.5,302.6,76.8,304.8,76.8z M237.5,120.8L237.5,120.8z M237.5,120.8h8.9c1.7,0,3-0.4,4-1.2c1-0.8,1.5-2,1.5-3.7
		c0-1.4-0.4-2.6-1.2-3.3c-0.8-0.8-1.9-1.2-3.3-1.2H246c-1.8,0-3.2-0.4-4.4-1.4s-1.8-2.6-1.8-4.7c0-2.1,0.5-3.9,1.6-5.1
		c1.1-1.3,3-2,5.7-2h2.8c2.6,0,4.9,0.5,6.9,1.5c2.1,1,3.8,2.3,5.2,4c1.4,1.8,2.5,3.8,3.2,6.1c0.8,2.4,1.2,4.8,1.2,7.5
		c0,3-0.5,5.6-1.2,8c-0.8,2.3-2.1,4.3-3.8,5.9c-1.7,1.7-3.8,3-6.5,3.9c-2.6,0.9-5.7,1.3-9.2,1.3H229c-5.3,0-7.9-2.7-7.9-8.3V85
		c0-2.7,0.7-4.8,1.9-6.2c1.4-1.4,3.5-2.1,6.3-2.1c5.4,0,8.2,2.8,8.2,8.4V120.8z M55,128.1L55,128.1z M55,128.1c0,4.9,2.4,7.3,7,7.3
		h16.7c1.7,0,3.3-0.1,4.8-0.3c1.5-0.2,2.8-0.5,4.1-1c1.2-0.4,2.4-0.9,3.4-1.5c1-0.6,1.9-1.3,2.7-2.1c0.8-0.7,1.5-1.6,2.1-2.5
		c0.5-1,1-2,1.4-3.1c0.8-2.2,1.2-4.7,1.2-7.6c0-1.2-0.2-2.5-0.3-3.7c-0.2-1.2-0.5-2.4-0.8-3.5c-0.4-1.1-0.8-2.1-1.3-3.1
		c-0.6-0.9-1.1-1.8-1.8-2.6c-0.7-0.8-1.4-1.5-2.2-2.2c-0.8-0.6-1.7-1.2-2.6-1.6c-1-0.5-2-0.8-3-1c-1.1-0.3-2.3-0.4-3.5-0.4H80
		c-1.2,0-2.2,0.2-3.1,0.5c-0.7,0.2-1.3,0.6-1.8,1.1c-0.9,1.1-1.3,2.6-1.3,4.5c0,1,0.1,1.8,0.4,2.4c0.2,0.7,0.5,1.1,1,1.5
		c0.5,0.4,1.1,0.7,1.7,0.9c0.6,0.3,1.3,0.4,2.1,0.4h1.4c0.8,0,1.5,0.1,2.2,0.3c0.7,0.2,1.2,0.6,1.8,1.1c0.5,0.5,0.8,1.1,1.1,1.8
		c0.2,0.6,0.3,1.4,0.3,2.2c0,1-0.1,1.8-0.4,2.6s-0.8,1.4-1.4,1.9s-1.3,0.8-2.1,1.1c-0.7,0.2-1.6,0.3-2.6,0.3h-8.9c-0.5,0-1-0.4-1-1
		V93.5c0-0.6,0.5-1,1-1h8.7c1.1,0,2.1-0.2,3-0.5c0.8-0.4,1.5-0.9,2-1.6c1.2-1.3,1.8-3.1,1.8-5.1c0-1-0.2-1.9-0.5-2.8
		c-0.2-0.9-0.7-1.7-1.3-2.4c-1.1-1.4-2.8-2-5-2h-17c-4.7,0-7.1,2.4-7.1,7.2V128.1z M81.1,119.6L81.1,119.6z M81.1,119.6
		c0.1,0,0.2,0,0.3,0c0.5-0.2,1-0.4,1.4-0.7c0.3-0.3,0.6-0.7,0.7-1.1c0.3-0.5,0.3-1.1,0.3-1.9c0-0.6,0-1.1-0.2-1.6
		c-0.1-0.4-0.3-0.7-0.6-1c-0.3-0.3-0.7-0.5-1.1-0.6c-0.4-0.2-0.9-0.3-1.5-0.3H79c-1,0-1.8-0.1-2.6-0.3
		C77.9,114.9,79.5,117.5,81.1,119.6z M70.7,76L70.7,76z M70.7,76h8.4c2.8,0,5,1,6.6,2.8c0.7,1,1.2,2,1.6,3.1c0.4,1,0.5,2.2,0.5,3.4
		c0,2.5-0.7,4.6-2.2,6.4c-0.7,1-1.6,1.6-2.8,2.1c-1,0.5-2.3,0.7-3.7,0.7h-7.7v5c0.3,0.9,0.5,1.8,0.8,2.7c0.3-1,0.8-1.9,1.4-2.7
		c0.7-0.8,1.6-1.3,2.7-1.7c1-0.4,2.3-0.6,3.7-0.6h2.9c1.4,0,2.6,0.2,3.9,0.4c1.2,0.3,2.4,0.7,3.5,1.2c1,0.5,2,1.1,2.9,1.8
		c0.9,0.8,1.8,1.6,2.5,2.5c0.8,0.9,1.4,1.9,2,3c0.6,1.1,1.1,2.2,1.5,3.4c0.4,1.2,0.6,2.5,0.8,3.8c0.3,1.3,0.3,2.7,0.3,4
		c0,3.1-0.4,5.8-1.2,8.3c-0.5,1.2-1,2.3-1.7,3.4s-1.4,2.1-2.3,2.9c-0.5,0.6-1.1,1-1.7,1.5l2,2.1c1.9,2.2,14.7,16.4,16.6,18.4
		l3.5,8.7l1.3,5.6l-0.9,4.1c-0.5,0.6-0.9,1.3-1.2,2c-0.3,0.8-0.5,1.6-0.5,2.4c0,0.9,0.2,1.7,0.5,2.4c0.2,0.5,0.4,0.9,0.6,1.3v4.1
		c0,0.1,0,0.2,0,0.3c0,0.2,0,0.3,0,0.5c0,1,0.2,2,0.6,2.9c0.4,1,1,1.9,1.7,2.5c0.7,0.7,1.6,1.2,2.5,1.6c0.9,0.4,1.8,0.6,2.8,0.6h9.6
		c1,0,1.9-0.2,2.8-0.6c0.9-0.4,1.8-0.9,2.4-1.6c0.8-0.6,1.4-1.5,1.8-2.5c0.4-0.9,0.6-1.9,0.6-2.9c0-0.1,0-0.3,0-0.6l-0.1-0.1v-4.2
		c0.3-0.4,0.5-0.8,0.7-1.3c0.3-0.7,0.5-1.5,0.5-2.4c0-0.9-0.2-1.7-0.5-2.4s-0.6-1.3-1.1-1.8l-0.9-4.2l1.2-6l3.6-10
		c0.8-1,2-2.3,3.6-4c1.7-1.9,3.8-4.3,6.3-7c2.8-3.1,2.5-2.8,3.4-3.7c0.7-0.9,1.4-1.6,1.8-2l2.7-3c0.2,0.5,0.5,1,0.9,1.4
		c0.7,0.8,1.6,1.4,2.6,1.9s2.3,0.8,3.7,0.8c2.5,0,4.6-0.8,6.3-2.2c1.7-1.5,3.3-3.3,4.8-5.4c1.7-2.5,3.3-5.1,4.6-7.6
		c1.4-2.6,2.6-5.3,3.7-8.2c1-2.9,1.9-5.9,2.5-9.1c0.7-3.3,1.1-6.8,1.2-10.7h6.2v35.1c0,2.7,0.8,4.7,2.5,6c1.6,1.4,3.5,2.1,5.7,2.1
		c2.2,0,4.2-0.7,5.7-2.1c1.7-1.3,2.5-3.3,2.5-6V85.3c0-5.5-2.7-8.3-8.2-8.3h-22.6c-0.4-2.4-1-4.9-1.8-7.5v-0.1
		c-0.4-1.4-10-34.2-53.4-34l-4.5,0.1h-0.1c-20.4,0.3-33.1,8.2-40.7,16.3c-5.2,5.5-8.1,11.2-9.4,14.6l-0.1-0.1l-0.9,2.9
		C71.7,71.5,71.1,73.8,70.7,76z M104.7,3.2L104.7,3.2z M104.7,3.2c34.7,0,65.3,17.2,83.9,43.6c12.7-12.7,30.2-20.6,49.6-20.6
		c25.8,0,48.3,13.9,60.5,34.6c15.2-8.5,32.8-13.4,51.5-13.4c13.2,0,25.8,2.4,37.4,6.8c12.3-16.9,32.3-28,54.9-28
		c37.5,0,67.8,30.4,67.8,67.8c0,5.4-0.6,10.6-1.8,15.6c40.5,4.3,72,38.5,72,80.1c0,44.5-36.1,80.6-80.5,80.6
		c-31.7,0-59.2-18.4-72.3-45C408.3,246,380.8,259,350.2,259c-31.9,0-60.5-14.1-79.9-36.4c-9.4,27.7-35.6,47.7-66.5,47.7
		c-37.5,0-68.1-29.4-70.1-66.4c-9.2,2.7-18.9,4.2-29,4.2c-56.6,0-102.5-45.9-102.5-102.5C2.2,49,48.1,3.2,104.7,3.2z"/>
	<path style="clip-path:url(#SVGID_2_);fill-rule:evenodd;clip-rule:evenodd;fill:#008BD0;" d="M154.7,47c0,0-4.7-2.7-13.1-4.3
		c0,0,2.3,3.2,3.5,5.9c0,0,3.3,7.3,4.2,12.7c0,0,1.7,8.9,1.8,14.2c0,0,0.2,10.4,0,13.4c0,0-0.7,9.2-1.3,12.3v0.1
		c-0.7,3-3.2,13.6-3.6,14.9c0,0-2.7,9.8-3.4,11.7c0,0-4.9,14.4-5.5,16.1c0,0-2.4,6.5-2.5,6.6l2.2-0.4c0.1-0.1,0.3-0.1,0.5-0.2
		l2.5-2.8l2.2-4.2l2.2-3.7l2.2-3.8l2.1-3.6l2.2-3.9l2.2-3.9c0,0,2-4,2.1-4.2c0.1-0.3,1.6-3.9,1.6-3.9l1.5-4l1.2-3.6l1-3.7l0.9-3.5
		l0.9-4.1l0.7-3.8l0.6-4.3l0.4-4.1l0.2-4.2l0.1-3.2l-0.3-4l-0.3-3.7l-0.5-3.1l-0.8-3.3l-0.9-3.1l-1.1-3.1l-1.2-2.7l-1.3-2.6
		l-1.3-2.1L154.7,47z"/>
	<path style="clip-path:url(#SVGID_2_);fill-rule:evenodd;clip-rule:evenodd;fill:#F4B4D1;" d="M125.3,151.2l-1-7.3l-0.9-5.6l-1-7.4
		l-0.9-7.7l-0.9-6.5l-0.7-5.6l-0.3-3l-0.7-6.4l-0.5-5.2l-0.4-5.3l-0.2-5.4l-0.2-5v-6.1l0.1-5.8l0.2-4.6l0.3-4.4l0.7-5.8l1-5.5
		l1.4-4.6l1.3-2.5l10-0.1l1.1,2.6l1.1,3.6l1,4.8l0.5,4.1l0.6,7.3l0.1,2.4l0.1,7.1v7l-0.2,6l-0.2,4.1l-0.6,7.1l-0.7,7.2l-0.7,6.6
		l-0.7,5.8l-0.9,6.9l-0.8,6.9l-0.9,7.2l-1,6.6l-0.9,6.6C128.1,151.4,126.7,151.3,125.3,151.2z"/>
	<path style="clip-path:url(#SVGID_2_);fill-rule:evenodd;clip-rule:evenodd;fill:#F07E3D;" d="M151.9,134.2
		c3.2-4,10.8-15.6,10.8-15.6c2.4-4,4.9-9.5,4.9-9.5c1.5-3.3,4.2-12.8,4.2-12.8c1.1-4.5,1.9-13.1,1.9-13.1c0.2-2.9-0.2-8.8-0.2-8.8
		c-0.8-7.1-2.8-13.2-2.8-13.2c0.3,0.4,0.7,0.9,1,1.4l1.8,3.1l1.5,3.5l0.9,2.3l0.5,1.8l0.4,1.6l0.2,0.7l0.1,0.6l0.1,0.7l0.1,0.4
		l0.1,0.7l0.1,0.4l0.1,0.7l0.1,0.6l0.1,0.6v0.4l0.1,0.6l0.1,0.6v0.6l0.1,0.4v0.6v0.6l0.1,0.4v0.4v0.6v0.4v0.6v0.3v0.5v0.3v0.6v0.7
		l-0.1,0.4v0.5l-0.1,0.8v0.5v0.4l-0.1,0.4l-0.1,0.4v0.5l-0.1,0.4v0.3l-0.1,0.5v0.3l-0.1,0.5l-0.1,0.5l-0.2,0.6l-0.1,0.7l-0.1,0.6
		l-0.2,0.8l-0.2,0.7l-0.2,0.9l-0.2,0.6l-0.4,1.1l-0.3,0.9l-0.2,0.6l-0.4,1.1l-0.3,0.8l-0.2,0.6l-0.5,1l-0.2,0.4l-0.5,1.1l-0.5,1
		l-0.6,1.2l-0.7,1.1l-0.7,1.3l-0.7,1.1l-0.7,1.1l-1,1.5l-1,1.3l-0.9,1.2l-0.9,1.1l-1.1,1.2l-0.9,1l-1,1l-1,1l-0.8,0.7
		C156.7,129,151.9,134.2,151.9,134.2z"/>
	<path style="clip-path:url(#SVGID_2_);fill-rule:evenodd;clip-rule:evenodd;fill:#A4027C;" d="M127.2,169.4c0,0.6-0.5,1.1-1.1,1.1
		c-0.6,0-1-0.5-1-1.1v-1.8c0-0.6,0.4-1.1,1-1.1c0.6,0,1.1,0.5,1.1,1.1V169.4z M130.4,169.4L130.4,169.4z M130.4,169.4
		c0,0.6-0.4,1.1-1.1,1.1c-0.6,0-1-0.5-1-1.1v-1.8c0-0.6,0.4-1.1,1-1.1c0.7,0,1.1,0.5,1.1,1.1V169.4z"/>
	<path style="clip-path:url(#SVGID_2_);fill-rule:evenodd;clip-rule:evenodd;fill:#A4027C;" d="M116.7,149.8c0,0,10.9,3.3,21.3,0.1
		l-3.8,10.9c0,0-6,2.9-13,0L116.7,149.8z"/>
	<path style="clip-path:url(#SVGID_2_);fill-rule:evenodd;clip-rule:evenodd;fill:#A4027C;" d="M130.4,169h1.5l1.5,7.2h-11.3
		l1.5-7.2h1.5v0.4c0,0.6,0.4,1,1,1c0.6,0,1.1-0.4,1.1-1V169h1.1v0.4c0,0.6,0.4,1,1,1c0.7,0,1.1-0.4,1.1-1V169z M123.5,167.7
		L123.5,167.7z M123.5,167.7v-6.1c-0.1-0.1-0.3-0.1-0.4-0.1v5.8l-1.4-6.3c-0.2-0.1-0.3-0.1-0.5-0.2l1.7,7.3l-1.7,8.1h-0.5
		c-0.3,0-0.5,0.2-0.5,0.5s0.2,0.6,0.5,0.6h0.6v7.6c0,0.2,0,0.3,0,0.4c0,0.9,0.7,1.6,1.6,1.6h9.6c0.9,0,1.6-0.7,1.6-1.6
		c0-0.1,0-0.2,0-0.4v-7.6h0.6c0.3,0,0.5-0.3,0.5-0.6s-0.2-0.5-0.5-0.5h-0.4l-1.6-7.9l1.5-7.5c0,0-0.2,0.1-0.4,0.2l-1.3,6.3l-0.1-5.8
		c-0.1,0-0.2,0-0.4,0.1l0.1,6.1l-1.5-5.9c-0.1,0.1-0.2,0.1-0.3,0.1l1.5,6.2h-1.4v-0.5c0-0.6-0.4-1.1-1.1-1.1c-0.6,0-1,0.5-1,1.1v0.5
		h-1.1v-0.5c0-0.6-0.5-1.1-1.1-1.1c-0.6,0-1,0.5-1,1.1v0.5h-1.4l1.5-6.2c-0.1,0-0.2,0-0.3,0L123.5,167.7z"/>
</g>
</svg>
